<!DOCTYPE svg PUBLIC "-//W3C//DTD SVG 20010904//EN" "http://www.w3.org/TR/2001/REC-SVG-20010904/DTD/svg10.dtd">
<svg version="1.0" xmlns="http://www.w3.org/2000/svg" width="327px" height="147px" viewBox="0 0 3270 1470" preserveAspectRatio="xMidYMid meet">
<g id="layer101" fill="#ffffff" stroke="none">
 <path d="M473 1057 c-84 -56 -152 -105 -153 -109 0 -5 16 -8 35 -8 28 0 62 18 156 81 l121 81 69 -46 69 -46 69 46 70 46 117 -81 c98 -67 124 -81 156 -81 22 0 37 4 33 9 -6 11 -301 211 -310 211 -3 0 -35 -20 -72 -44 l-66 -45 -58 40 c-32 22 -64 42 -71 44 -7 3 -81 -41 -165 -98z"/>
 <path d="M527 1014 c-55 -36 -96 -68 -93 -71 3 -3 48 22 99 56 51 33 96 61 101 61 4 0 34 -18 66 -40 32 -22 64 -40 70 -40 6 0 38 18 70 40 32 22 63 40 68 40 5 0 48 -27 96 -61 47 -33 91 -59 97 -57 10 3 -180 138 -194 138 -4 0 -37 -20 -73 -44 l-66 -44 -63 44 c-34 24 -67 44 -71 44 -5 0 -53 -30 -107 -66z"/>
 <path d="M532 723 c-50 -179 -48 -163 -19 -163 24 0 28 7 47 73 12 39 24 79 27 87 6 17 11 5 38 -92 14 -50 20 -58 40 -58 22 0 27 9 46 75 12 41 25 75 29 75 5 0 11 -12 15 -27 27 -113 36 -133 61 -133 13 0 24 3 24 8 0 4 -16 67 -37 140 -36 128 -38 133 -62 130 -22 -3 -28 -12 -48 -82 -12 -43 -24 -81 -26 -83 -3 -2 -15 35 -28 82 -22 78 -26 85 -49 85 -23 0 -27 -7 -58 -117z"/>
 <path d="M870 700 l0 -140 90 0 c89 0 90 0 90 25 0 24 -2 25 -65 25 l-65 0 0 35 0 34 58 3 c49 3 57 6 57 23 0 17 -8 20 -57 23 l-58 3 0 54 c0 52 -1 55 -25 55 l-25 0 0 -140z"/>
 <path d="M2435 790 c-27 -27 -53 -50 -57 -50 -4 0 -8 20 -8 45 0 38 -3 45 -20 45 -19 0 -20 -7 -20 -125 l0 -125 73 0 c88 0 107 14 107 77 0 33 -6 46 -29 66 l-29 24 31 32 c28 27 30 32 16 46 -13 13 -20 10 -64 -35z m20 -130 c0 -34 -1 -35 -42 -38 l-43 -3 0 41 0 41 43 -3 c41 -3 42 -4 42 -38z"/>
 <path d="M1322 721 c-38 -129 -38 -137 -12 -144 16 -4 22 2 30 36 6 23 17 60 24 82 l13 40 22 -72 c19 -64 25 -73 45 -73 21 0 26 8 42 70 10 38 20 67 23 64 3 -3 15 -38 27 -77 17 -61 23 -71 40 -69 10 2 21 5 22 7 2 2 -11 57 -30 122 -29 102 -37 118 -56 121 -12 2 -24 -3 -27 -10 -2 -7 -13 -42 -23 -78 l-19 -65 -23 78 c-20 66 -26 77 -45 77 -19 0 -26 -13 -53 -109z"/>
 <path d="M1620 705 l0 -126 83 3 c65 2 82 6 82 18 0 11 -14 16 -57 18 -57 3 -58 4 -58 32 0 29 1 30 50 30 43 0 50 3 50 20 0 17 -7 20 -50 20 l-50 0 0 35 0 34 57 3 c46 2 59 7 61 21 3 15 -6 17 -82 17 l-86 0 0 -125z"/>
 <path d="M1810 705 l0 -125 73 0 c59 0 77 4 90 18 20 21 22 73 5 90 -9 9 -8 16 5 30 24 26 21 65 -6 90 -19 18 -35 22 -95 22 l-72 0 0 -125z m137 69 c10 -27 -11 -49 -51 -52 -35 -3 -36 -2 -36 32 0 35 1 36 40 36 28 0 43 -5 47 -16z m-9 -126 c3 -27 1 -28 -37 -28 -39 0 -41 1 -41 31 0 29 2 30 38 27 32 -3 37 -7 40 -30z"/>
 <path d="M2140 705 l0 -126 83 3 c65 2 82 6 82 18 0 11 -14 16 -57 18 l-58 3 0 34 0 35 50 0 c43 0 50 3 50 20 0 17 -7 20 -50 20 l-50 0 0 50 c0 47 -2 50 -25 50 l-25 0 0 -125z"/>
 <path d="M2542 708 l3 -123 83 -3 c77 -3 82 -2 82 18 0 18 -6 20 -60 20 -60 0 -60 0 -60 29 0 29 2 30 53 33 38 2 52 7 52 18 0 11 -14 16 -52 18 l-53 3 0 35 0 34 60 0 c53 0 60 2 60 20 0 18 -7 20 -85 20 l-86 0 3 -122z"/>
 <path d="M2740 705 l0 -125 80 0 c73 0 80 2 80 20 0 18 -7 20 -60 20 l-60 0 0 30 c0 30 1 30 55 30 48 0 55 2 55 20 0 18 -7 20 -55 20 l-55 0 0 35 0 35 60 0 c53 0 60 2 60 20 0 18 -7 20 -80 20 l-80 0 0 -125z"/>
 <path d="M320 463 c1 -5 70 -55 155 -112 l155 -104 69 46 68 45 66 -44 c37 -24 69 -44 72 -44 9 0 303 199 310 210 4 6 -8 10 -33 10 -32 0 -58 -14 -156 -81 l-117 -81 -70 46 -69 46 -69 -46 -69 -46 -121 81 c-94 63 -128 81 -156 81 -19 0 -35 -3 -35 -7z"/>
 <path d="M430 465 c0 -6 175 -124 195 -131 8 -3 43 14 79 39 l64 45 66 -44 c36 -24 69 -44 73 -44 14 0 204 135 194 138 -6 2 -50 -24 -97 -57 -48 -34 -91 -61 -96 -61 -5 0 -36 18 -68 40 -32 22 -64 40 -70 40 -6 0 -38 -18 -70 -40 -32 -22 -63 -40 -67 -40 -4 0 -48 27 -98 60 -84 56 -105 67 -105 55z"/>
 </g>

</svg>